<?xml version="1.0" encoding="UTF-8" standalone="no"?>
<!-- Created with Inkscape (http://www.inkscape.org/) -->

<svg
   width="1400mm"
   height="560mm"
   viewBox="0 0 1400 559.99998"
   version="1.1"
   id="svg5"
   xml:space="preserve"
   sodipodi:docname="icon.svg"
   inkscape:version="1.2.2 (732a01da63, 2022-12-09)"
   inkscape:export-filename="promo-tile.png"
   inkscape:export-xdpi="17.944839"
   inkscape:export-ydpi="17.944839"
   xmlns:inkscape="http://www.inkscape.org/namespaces/inkscape"
   xmlns:sodipodi="http://sodipodi.sourceforge.net/DTD/sodipodi-0.dtd"
   xmlns="http://www.w3.org/2000/svg"
   xmlns:svg="http://www.w3.org/2000/svg"><sodipodi:namedview
     id="namedview7"
     pagecolor="#132e47"
     bordercolor="#000000"
     borderopacity="0.25"
     inkscape:showpageshadow="2"
     inkscape:pageopacity="1"
     inkscape:pagecheckerboard="0"
     inkscape:deskcolor="#d1d1d1"
     inkscape:document-units="mm"
     showgrid="false"
     inkscape:zoom="0.25264136"
     inkscape:cx="2897.3878"
     inkscape:cy="977.67046"
     inkscape:window-width="1920"
     inkscape:window-height="1009"
     inkscape:window-x="1912"
     inkscape:window-y="-8"
     inkscape:window-maximized="1"
     inkscape:current-layer="g51545" /><defs
     id="defs2" /><g
     inkscape:label="Layer 1"
     inkscape:groupmode="layer"
     id="layer1"
     transform="translate(-14.411278,-57.911278)"><g
       id="g51545"
       transform="matrix(1.8935177,0,0,1.8935177,270.54938,-36.837252)"
       style="stroke-width:0.528118"><circle
         style="fill:#eff8ff;fill-opacity:1;stroke:none;stroke-width:0.105623;stroke-linecap:round;stroke-linejoin:round;stroke-miterlimit:4.3;stroke-dasharray:none;stroke-opacity:1;paint-order:fill markers stroke"
         id="path51105"
         cx="234.41127"
         cy="197.91129"
         r="98.293945" /><g
         id="g50556"
         transform="translate(-6.7e-5,-3.956992)"
         style="stroke-width:0.528118"><path
           id="path20242"
           style="fill:#0050c3;fill-opacity:1;stroke:#0050c3;stroke-width:0.105623;stroke-linecap:round;stroke-linejoin:round;stroke-miterlimit:4.3;stroke-dasharray:none;stroke-opacity:1"
           d="m 317.33651,238.25326 -80.26745,-87.87991 -2.65772,68.07233 -4.00027,5.03535 0.9772,7.85999 16.33441,17.59169 -25.43205,-0.69453 -25.28993,-34.82785 -5.95622,33.52767 27.52855,44.02109 a 90.588722,90.588722 0 0 0 15.83831,1.44797 90.588722,90.588722 0 0 0 82.92517,-54.1538 z" /><path
           id="path50535"
           style="fill:#007ceb;fill-opacity:1;stroke:none;stroke-width:4.22494;stroke-linecap:round;stroke-linejoin:round;stroke-miterlimit:4.3;stroke-dasharray:none;stroke-opacity:1"
           d="m 234.41134,111.22948 a 90.588722,90.588722 0 0 0 -90.58878,90.58879 90.588722,90.588722 0 0 0 74.75047,89.14082 l -27.52855,-44.02109 5.95622,-33.52767 25.28993,34.82785 25.43205,0.69453 -16.33441,-17.59169 -0.9772,-7.85999 4.00027,-5.03535 2.65772,-68.07233 80.26745,87.87991 a 90.588722,90.588722 0 0 0 7.66362,-36.43499 90.588722,90.588722 0 0 0 -90.58879,-90.58879 z" /><g
           id="g42880"
           transform="translate(129.41128,51.989516)"
           style="stroke:#ffffff;stroke-width:6.98655559;stroke-opacity:1;stroke-dasharray:none"><path
             style="fill:none;fill-opacity:1;stroke:#ffffff;stroke-width:6.98655559;stroke-linecap:round;stroke-linejoin:round;stroke-miterlimit:4.3;stroke-dasharray:none;stroke-opacity:1;paint-order:fill markers stroke"
             d="m 105,101.38545 v 75.28627"
             id="path42409" /><path
             style="fill:none;fill-opacity:1;stroke:#ffffff;stroke-width:6.98655559;stroke-linecap:round;stroke-linejoin:round;stroke-miterlimit:4.3;stroke-dasharray:none;stroke-opacity:1;paint-order:fill markers stroke"
             d="m 105,176.67172 23.95601,-23.92886"
             id="path42873"
             sodipodi:nodetypes="cc" /><path
             style="fill:none;fill-opacity:1;stroke:#ffffff;stroke-width:6.98655559;stroke-linecap:round;stroke-linejoin:round;stroke-miterlimit:4.3;stroke-dasharray:none;stroke-opacity:1;paint-order:fill markers stroke"
             d="M 105,176.67172 80.758646,152.74286"
             id="path42875"
             sodipodi:nodetypes="cc" /></g><path
           id="path31131"
           style="fill:none;fill-opacity:1;stroke:#ffffff;stroke-width:6.98655559;stroke-linecap:round;stroke-linejoin:round;stroke-miterlimit:4.3;stroke-dasharray:none;stroke-opacity:1"
           d="m 274.49909,216.38971 v 26.73835 c 0,3.21579 -2.59333,5.8047 -5.81464,5.8047 H 200.1381 c -3.2213,0 -5.81463,-2.58891 -5.81463,-5.8047 v -26.73835" /></g></g></g></svg>
